<svg aria-hidden="true" style="position: absolute; width: 0; height: 0; overflow: hidden;" version="1.1" xmlns="http://www.w3.org/2000/svg" xmlns:xlink="http://www.w3.org/1999/xlink">
<defs>
<symbol id="icon-Vector" viewBox="0 0 23 32">
<path d="M0 7.347c0 2.422 1.768 4.434 4.081 4.824v7.421c0 0.217 0.086 0.424 0.239 0.577s0.361 0.239 0.577 0.239h13.063c0.217 0 0.424-0.086 0.577-0.239s0.239-0.361 0.239-0.577v-7.421c2.312-0.391 4.080-2.402 4.080-4.824 0-2.701-2.197-4.898-4.898-4.898h-1.847c-1.034-1.478-2.746-2.449-4.683-2.449s-3.649 0.971-4.683 2.449h-1.848c-1.299 0.002-2.543 0.518-3.462 1.436s-1.435 2.163-1.436 3.462zM5.714 17.961h11.43v0.815h-11.43v-0.815zM4.898 4.082h1.056c-0.159 0.53-0.24 1.080-0.241 1.633 0 0.217 0.086 0.424 0.239 0.577s0.361 0.239 0.577 0.239c0.217 0 0.424-0.086 0.577-0.239s0.239-0.361 0.239-0.577c0-2.251 1.831-4.082 4.082-4.082s4.082 1.831 4.082 4.082c0 0.217 0.086 0.424 0.239 0.577s0.361 0.239 0.577 0.239c0.217 0 0.424-0.086 0.577-0.239s0.239-0.361 0.239-0.577c0-0.567-0.086-1.114-0.241-1.633h1.056c1.801 0 3.266 1.465 3.266 3.266-0.001 0.865-0.344 1.694-0.955 2.306s-1.439 0.957-2.304 0.959l-0.005-0.001c-0.107-0-0.214 0.021-0.313 0.062s-0.189 0.102-0.265 0.178c-0.076 0.076-0.137 0.166-0.178 0.265s-0.062 0.206-0.062 0.313l0.002 0.008v4.891h-11.43v-4.895l0.001-0.004c0-0.107-0.021-0.214-0.062-0.313s-0.101-0.19-0.177-0.265c-0.076-0.076-0.166-0.136-0.265-0.177s-0.206-0.062-0.313-0.062l-0.005 0.001c-0.865-0.002-1.693-0.347-2.304-0.959s-0.955-1.441-0.955-2.306c0-1.801 1.465-3.266 3.266-3.266zM20.406 23.675h-17.956c-0.217 0-0.424 0.086-0.577 0.239s-0.239 0.361-0.239 0.577c0 0.216 0.086 0.424 0.239 0.577s0.361 0.239 0.577 0.239h17.956c0.217 0 0.424-0.086 0.577-0.239s0.239-0.361 0.239-0.577c0-0.217-0.086-0.424-0.239-0.577s-0.361-0.239-0.577-0.239zM20.406 26.124h-17.956c-0.217 0-0.424 0.086-0.577 0.239s-0.239 0.361-0.239 0.577c0 0.216 0.086 0.424 0.239 0.577s0.361 0.239 0.577 0.239h17.956c0.217 0 0.424-0.086 0.577-0.239s0.239-0.361 0.239-0.577c0-0.217-0.086-0.424-0.239-0.577s-0.361-0.239-0.577-0.239zM16.325 28.595h-9.793c-0.216 0-0.424 0.086-0.577 0.239s-0.239 0.361-0.239 0.577c0 0.217 0.086 0.424 0.239 0.577s0.361 0.239 0.577 0.239h9.793c0.216 0 0.424-0.086 0.577-0.239s0.239-0.361 0.239-0.577c0-0.216-0.086-0.424-0.239-0.577s-0.361-0.239-0.577-0.239z"></path>
</symbol>
<symbol id="icon-menu" viewBox="0 0 60 32">
<path d="M2 0h56c1.105 0 2 0.895 2 2s-0.895 2-2 2h-56c-1.105 0-2-0.895-2-2s0.895-2 2-2z"></path>
<path d="M2 14h56c1.105 0 2 0.895 2 2s-0.895 2-2 2h-56c-1.105 0-2-0.895-2-2s0.895-2 2-2z"></path>
<path d="M2 28h56c1.105 0 2 0.895 2 2s-0.895 2-2 2h-56c-1.105 0-2-0.895-2-2s0.895-2 2-2z"></path>
</symbol>
<symbol id="icon-facebook" viewBox="0 0 32 32">
<path d="M19 6h5v-6h-5c-3.86 0-7 3.14-7 7v3h-4v6h4v16h6v-16h5l1-6h-6v-3c0-0.542 0.458-1 1-1z"></path>
</symbol>
<symbol id="icon-instagram" viewBox="0 0 32 32">
<path d="M16 2.881c4.275 0 4.781 0.019 6.462 0.094 1.563 0.069 2.406 0.331 2.969 0.55 0.744 0.288 1.281 0.638 1.837 1.194 0.563 0.563 0.906 1.094 1.2 1.838 0.219 0.563 0.481 1.412 0.55 2.969 0.075 1.688 0.094 2.194 0.094 6.463s-0.019 4.781-0.094 6.463c-0.069 1.563-0.331 2.406-0.55 2.969-0.288 0.744-0.637 1.281-1.194 1.837-0.563 0.563-1.094 0.906-1.837 1.2-0.563 0.219-1.413 0.481-2.969 0.55-1.688 0.075-2.194 0.094-6.463 0.094s-4.781-0.019-6.463-0.094c-1.563-0.069-2.406-0.331-2.969-0.55-0.744-0.288-1.281-0.637-1.838-1.194-0.563-0.563-0.906-1.094-1.2-1.837-0.219-0.563-0.481-1.413-0.55-2.969-0.075-1.688-0.094-2.194-0.094-6.463s0.019-4.781 0.094-6.463c0.069-1.563 0.331-2.406 0.55-2.969 0.288-0.744 0.638-1.281 1.194-1.838 0.563-0.563 1.094-0.906 1.838-1.2 0.563-0.219 1.412-0.481 2.969-0.55 1.681-0.075 2.188-0.094 6.463-0.094zM16 0c-4.344 0-4.887 0.019-6.594 0.094-1.7 0.075-2.869 0.35-3.881 0.744-1.056 0.412-1.95 0.956-2.837 1.85-0.894 0.888-1.438 1.781-1.85 2.831-0.394 1.019-0.669 2.181-0.744 3.881-0.075 1.713-0.094 2.256-0.094 6.6s0.019 4.887 0.094 6.594c0.075 1.7 0.35 2.869 0.744 3.881 0.413 1.056 0.956 1.95 1.85 2.837 0.887 0.887 1.781 1.438 2.831 1.844 1.019 0.394 2.181 0.669 3.881 0.744 1.706 0.075 2.25 0.094 6.594 0.094s4.888-0.019 6.594-0.094c1.7-0.075 2.869-0.35 3.881-0.744 1.050-0.406 1.944-0.956 2.831-1.844s1.438-1.781 1.844-2.831c0.394-1.019 0.669-2.181 0.744-3.881 0.075-1.706 0.094-2.25 0.094-6.594s-0.019-4.887-0.094-6.594c-0.075-1.7-0.35-2.869-0.744-3.881-0.394-1.063-0.938-1.956-1.831-2.844-0.887-0.887-1.781-1.438-2.831-1.844-1.019-0.394-2.181-0.669-3.881-0.744-1.712-0.081-2.256-0.1-6.6-0.1v0z"></path>
<path d="M16 7.781c-4.537 0-8.219 3.681-8.219 8.219s3.681 8.219 8.219 8.219 8.219-3.681 8.219-8.219c0-4.537-3.681-8.219-8.219-8.219zM16 21.331c-2.944 0-5.331-2.387-5.331-5.331s2.387-5.331 5.331-5.331c2.944 0 5.331 2.387 5.331 5.331s-2.387 5.331-5.331 5.331z"></path>
<path d="M26.462 7.456c0 1.060-0.859 1.919-1.919 1.919s-1.919-0.859-1.919-1.919c0-1.060 0.859-1.919 1.919-1.919s1.919 0.859 1.919 1.919z"></path>
</symbol>
<symbol id="icon-twitter" viewBox="0 0 32 32">
<path d="M32 7.075c-1.175 0.525-2.444 0.875-3.769 1.031 1.356-0.813 2.394-2.1 2.887-3.631-1.269 0.75-2.675 1.3-4.169 1.594-1.2-1.275-2.906-2.069-4.794-2.069-3.625 0-6.563 2.938-6.563 6.563 0 0.512 0.056 1.012 0.169 1.494-5.456-0.275-10.294-2.888-13.531-6.862-0.563 0.969-0.887 2.1-0.887 3.3 0 2.275 1.156 4.287 2.919 5.463-1.075-0.031-2.087-0.331-2.975-0.819 0 0.025 0 0.056 0 0.081 0 3.181 2.263 5.838 5.269 6.437-0.55 0.15-1.131 0.231-1.731 0.231-0.425 0-0.831-0.044-1.237-0.119 0.838 2.606 3.263 4.506 6.131 4.563-2.25 1.762-5.075 2.813-8.156 2.813-0.531 0-1.050-0.031-1.569-0.094 2.913 1.869 6.362 2.95 10.069 2.95 12.075 0 18.681-10.006 18.681-18.681 0-0.287-0.006-0.569-0.019-0.85 1.281-0.919 2.394-2.075 3.275-3.394z"></path>
</symbol>
<symbol id="icon-close-btn" viewBox="0 0 32 32">
<path d="M28.614 1.13l-12.614 12.614-12.614-12.614c-0.303-0.278-0.702-0.427-1.113-0.418s-0.803 0.176-1.094 0.467c-0.291 0.291-0.458 0.683-0.467 1.094s0.141 0.81 0.418 1.113l12.608 12.614-12.611 12.611c-0.154 0.147-0.277 0.323-0.362 0.518s-0.13 0.405-0.133 0.618 0.037 0.424 0.117 0.621c0.080 0.197 0.199 0.376 0.349 0.527s0.329 0.27 0.526 0.35 0.408 0.121 0.621 0.118c0.213-0.002 0.423-0.047 0.618-0.132s0.372-0.208 0.519-0.361l12.618-12.611 12.614 12.614c0.303 0.278 0.702 0.428 1.113 0.418s0.803-0.176 1.094-0.467c0.291-0.291 0.458-0.683 0.467-1.094s-0.141-0.81-0.418-1.113l-12.614-12.614 12.614-12.618c0.154-0.147 0.277-0.323 0.362-0.518s0.13-0.405 0.133-0.618c0.003-0.213-0.037-0.424-0.117-0.621s-0.199-0.376-0.349-0.527c-0.15-0.151-0.329-0.27-0.526-0.35s-0.408-0.121-0.621-0.118-0.423 0.047-0.618 0.132c-0.195 0.085-0.372 0.208-0.519 0.362v0.003z"></path>
</symbol>
</defs>
</svg>
